<svg id="logo" xmlns="http://www.w3.org/2000/svg" viewBox="0 0 250.69 47.48"><defs><style>.cls-1{fill:#fff;}</style></defs><g id="LawnMOVER"><path class="cls-1" d="M251.11,16c-.13.65-.25,1.3-.41,1.94a18.88,18.88,0,0,1-3.42,7.41,13.93,13.93,0,0,1-9.18,5.24,22.91,22.91,0,0,1-7.92-.25c-1.51-.3-3-.72-4.48-1.09l-.16-.06a1.58,1.58,0,0,1,.15-.18,31.87,31.87,0,0,1,14.44-7.95c1-.24,2-.39,3-.57.46-.09.68-.3.62-.64s-.31-.5-.76-.43a32.41,32.41,0,0,0-17.27,8,3.83,3.83,0,0,0-.28.29l-.09,0c.07-.28.13-.56.21-.84a18.26,18.26,0,0,1,4.88-8.53,15.28,15.28,0,0,1,8.36-4,22.77,22.77,0,0,1,7.23,0c1.72.28,3.41.69,5.12,1Z" transform="translate(-0.47 -0.57)"/><path class="cls-1" d="M233.39.57c.54.8,1.06,1.51,1.51,2.25a18.41,18.41,0,0,1,2.8,7.84c.07.82,0,1.64.06,2.46,0,.24-.1.32-.33.37a16.12,16.12,0,0,0-8,4.28,18.39,18.39,0,0,0-4,6.06.51.51,0,0,1-.14.21c0-.18,0-.35.06-.53a5.34,5.34,0,0,1,.09-.53A28.84,28.84,0,0,1,230,11.71c.44-.63.93-1.21,1.37-1.84a.8.8,0,0,0,.14-.58.54.54,0,0,0-.39-.34.81.81,0,0,0-.57.25c-.68.9-1.38,1.8-2,2.76a28.42,28.42,0,0,0-4.16,10.88c-.25,1.55-.38,3.12-.56,4.65,0,0-.08-.1-.13-.19a18.9,18.9,0,0,1-2.83-8.84,14.9,14.9,0,0,1,2.45-8.93,22.87,22.87,0,0,1,5.94-6.15C230.56,2.4,232,1.53,233.39.57Z" transform="translate(-0.47 -0.57)"/><path class="cls-1" d="M1.38,47.67a.9.9,0,0,1-.91-.91V22a.92.92,0,0,1,.26-.65.92.92,0,0,1,.65-.26H4.91a.91.91,0,0,1,.65.26.89.89,0,0,1,.27.65V43.15h12a.89.89,0,0,1,.95,1v2.66a.9.9,0,0,1-.26.64.93.93,0,0,1-.69.27Z" transform="translate(-0.47 -0.57)"/><path class="cls-1" d="M27.79,48.05a8,8,0,0,1-3.57-.78,6.55,6.55,0,0,1-2.53-2.09A5.19,5.19,0,0,1,22.92,38a12.79,12.79,0,0,1,5.67-2.11l5.2-.76v-.8A3.54,3.54,0,0,0,33,31.86,3.61,3.61,0,0,0,30.26,31a4,4,0,0,0-2.22.55A3.35,3.35,0,0,0,26.76,33a1,1,0,0,1-.87.49h-3a.82.82,0,0,1-.63-.22.89.89,0,0,1-.21-.61,3.89,3.89,0,0,1,.51-1.48A5.87,5.87,0,0,1,24,29.49a8.21,8.21,0,0,1,2.52-1.39,11,11,0,0,1,3.77-.57,11.92,11.92,0,0,1,4,.59A6.92,6.92,0,0,1,37,29.69,6.11,6.11,0,0,1,38.43,32a8.75,8.75,0,0,1,.45,2.81V46.76a.86.86,0,0,1-.26.64.88.88,0,0,1-.65.27H34.9a.86.86,0,0,1-.67-.27.89.89,0,0,1-.25-.64V45.27a6.43,6.43,0,0,1-1.33,1.33,6.58,6.58,0,0,1-2,1A8.86,8.86,0,0,1,27.79,48.05Zm1.29-3.61a5.07,5.07,0,0,0,2.41-.57A4,4,0,0,0,33.2,42.1a6.44,6.44,0,0,0,.63-3v-.8l-3.8.61A8.28,8.28,0,0,0,26.69,40a2.22,2.22,0,0,0-1.11,1.86,2.11,2.11,0,0,0,.52,1.43,3.08,3.08,0,0,0,1.31.87A4.93,4.93,0,0,0,29.08,44.44Z" transform="translate(-0.47 -0.57)"/><path class="cls-1" d="M49,47.67a1.06,1.06,0,0,1-.8-.27,2.32,2.32,0,0,1-.46-.68L42.27,29.09a1.5,1.5,0,0,1,0-.35.77.77,0,0,1,.25-.58.73.73,0,0,1,.55-.25h2.81a1,1,0,0,1,.72.25.89.89,0,0,1,.31.47l3.72,12.58,3.95-12.47a1.53,1.53,0,0,1,.34-.55,1.05,1.05,0,0,1,.8-.28h1.9a1,1,0,0,1,.8.28,1.4,1.4,0,0,1,.34.55l4,12.47L66.4,28.63a.88.88,0,0,1,.28-.47,1,1,0,0,1,.71-.25H70.2a.84.84,0,0,1,.83.83,1,1,0,0,1-.07.35L65.52,46.72a1.37,1.37,0,0,1-.4.68,1.13,1.13,0,0,1-.81.27H61.84A1.25,1.25,0,0,1,61,47.4a1.3,1.3,0,0,1-.44-.68l-3.95-12-4,12a1.71,1.71,0,0,1-.44.68,1.19,1.19,0,0,1-.85.27Z" transform="translate(-0.47 -0.57)"/><path class="cls-1" d="M75.63,47.67a.9.9,0,0,1-.91-.91V28.82a.89.89,0,0,1,.91-.91h3.12a.9.9,0,0,1,.91.91v1.56a8.18,8.18,0,0,1,2.53-2A8.08,8.08,0,0,1,86,27.53a7.63,7.63,0,0,1,4,1,7,7,0,0,1,2.64,2.95,10.27,10.27,0,0,1,.93,4.56V46.76a.86.86,0,0,1-.26.64.88.88,0,0,1-.65.27H89.35a.9.9,0,0,1-.91-.91V36.31a5.07,5.07,0,0,0-1.09-3.46,3.89,3.89,0,0,0-3.13-1.26,4.13,4.13,0,0,0-3.16,1.26,4.86,4.86,0,0,0-1.17,3.46V46.76a.92.92,0,0,1-.91.91Z" transform="translate(-0.47 -0.57)"/><path class="cls-1" d="M99.3,47.67a1,1,0,0,1-.72-.29.92.92,0,0,1-.3-.7V22.06a.94.94,0,0,1,.3-.71,1,1,0,0,1,.72-.28h5.06a1.27,1.27,0,0,1,1,.38c.23.25.38.43.46.53l6.08,10.56L118,22c.08-.1.23-.28.46-.53a1.27,1.27,0,0,1,1-.38h5.06a1,1,0,0,1,1,1V46.68a.94.94,0,0,1-.28.7,1,1,0,0,1-.7.29h-5.7a1,1,0,0,1-.71-.29.94.94,0,0,1-.28-.7V34.37l-3.42,6a3,3,0,0,1-.5.61,1.18,1.18,0,0,1-.87.3h-2.32a1.13,1.13,0,0,1-.83-.3,3,3,0,0,1-.5-.61l-3.42-6V46.68a.94.94,0,0,1-.28.7,1,1,0,0,1-.71.29Z" transform="translate(-0.47 -0.57)"/><path class="cls-1" d="M141.75,48.05a16.12,16.12,0,0,1-6.33-1.14,9.35,9.35,0,0,1-4.21-3.44,10.72,10.72,0,0,1-1.66-5.72c0-1.06,0-2.16,0-3.29s0-2.25,0-3.36a10.79,10.79,0,0,1,1.66-5.7,9.59,9.59,0,0,1,4.23-3.52,17.22,17.22,0,0,1,12.58,0,9.78,9.78,0,0,1,4.26,3.52,10.43,10.43,0,0,1,1.63,5.7c.05,1.11.08,2.24.08,3.36s0,2.23-.08,3.29a10.81,10.81,0,0,1-1.65,5.72A9.37,9.37,0,0,1,148,46.91,16,16,0,0,1,141.75,48.05Zm0-6.46a3.69,3.69,0,0,0,2.62-1,4.21,4.21,0,0,0,1.07-3.1c.05-1.09.07-2.14.07-3.17s0-2.07-.07-3.14a5.29,5.29,0,0,0-.52-2.31,2.87,2.87,0,0,0-1.29-1.33,4,4,0,0,0-1.88-.42,4.18,4.18,0,0,0-1.9.42,2.91,2.91,0,0,0-1.31,1.33,5.16,5.16,0,0,0-.51,2.31c0,1.07,0,2.11,0,3.14s0,2.08,0,3.17a4.38,4.38,0,0,0,1.08,3.1A3.67,3.67,0,0,0,141.75,41.59Z" transform="translate(-0.47 -0.57)"/><path class="cls-1" d="M164.59,47.67a1.57,1.57,0,0,1-1.12-.38,1.65,1.65,0,0,1-.51-.8l-7.49-24.32a.93.93,0,0,1,0-.27.84.84,0,0,1,.84-.83h5.89a1.41,1.41,0,0,1,1.06.38,1.82,1.82,0,0,1,.49.76l4.49,15.84,4.48-15.84a1.85,1.85,0,0,1,.5-.76,1.39,1.39,0,0,1,1.06-.38h5.89a.75.75,0,0,1,.57.24.88.88,0,0,1,.23.59.93.93,0,0,1,0,.27l-7.45,24.32a1.65,1.65,0,0,1-.51.8,1.58,1.58,0,0,1-1.12.38Z" transform="translate(-0.47 -0.57)"/><path class="cls-1" d="M185,47.67a1,1,0,0,1-.68-.29.93.93,0,0,1-.31-.7V22.06a1,1,0,0,1,1-1h18.62a1,1,0,0,1,.72.28.92.92,0,0,1,.31.71v4.48a.92.92,0,0,1-.31.68,1,1,0,0,1-.72.31H191.91v3.76h10.91a1,1,0,0,1,.72.29.91.91,0,0,1,.3.7v4.1a.92.92,0,0,1-.3.7,1,1,0,0,1-.72.29H191.91v3.84H204a1,1,0,0,1,1,1v4.45a.92.92,0,0,1-.3.7,1,1,0,0,1-.72.29Z" transform="translate(-0.47 -0.57)"/><path class="cls-1" d="M209.85,47.67a1,1,0,0,1-.69-.29.92.92,0,0,1-.3-.7V22.06a.94.94,0,0,1,.3-.71,1,1,0,0,1,.69-.28h10.83c3.44,0,6.15.78,8.11,2.35A8,8,0,0,1,231.73,30a8.09,8.09,0,0,1-1.21,4.52,8.72,8.72,0,0,1-3.19,2.93l4.94,9a1.09,1.09,0,0,1,.11.42.84.84,0,0,1-.23.59.72.72,0,0,1-.57.25h-6.42a1.53,1.53,0,0,1-1.1-.36,1.93,1.93,0,0,1-.5-.67l-3.8-7.83H217v7.87a1,1,0,0,1-1,1ZM217,32.54h3.61a2.46,2.46,0,0,0,2-.74,2.69,2.69,0,0,0,.65-1.84,3,3,0,0,0-.63-1.94,2.38,2.38,0,0,0-2-.8H217Z" transform="translate(-0.47 -0.57)"/></g></svg>